<?xml version="1.0" encoding="utf-8"?>
<!-- Generator: Adobe Illustrator 16.0.0, SVG Export Plug-In . SVG Version: 6.00 Build 0)  -->
<!DOCTYPE svg PUBLIC "-//W3C//DTD SVG 1.1//EN" "http://www.w3.org/Graphics/SVG/1.1/DTD/svg11.dtd">
<svg version="1.1" id="BARBER_vector_logo" xmlns="http://www.w3.org/2000/svg" xmlns:xlink="http://www.w3.org/1999/xlink" x="0px"
	 y="0px" width="841.89px" height="595.28px" viewBox="0 0 841.89 595.28" enable-background="new 0 0 841.89 595.28"
	 xml:space="preserve">
<path d="M408.043,399.054c23.539-2.688,34.817-13.971,37.713-37.719l0.06-0.487c-0.117,5.543-1.104,15.846-6.272,24.19
	c-6.465,9.128-16.663,14.229-31.285,15.899c-12.314,1.408-60.411,5.799-100.338,9.39c24.883-2.987,51.846-6.083,67.213-7.408
	c14.046-1.213,24.198-2.511,31.528-3.712C407.157,399.153,407.627,399.102,408.043,399.054z M667.707,345.096
	c-12.897,11.539-44.661,16.607-71.893,16.692c8.104-0.411,29.797-1.974,47.445-7.447l-0.217,0.022
	c11.049-2.966,19.055-6.794,23.401-10.682c2.163-1.937,2.89-4.057,3.019-5.871c-0.721,2.89-3.125,4.938-4.861,4.933
	c2.886-3.906,3.185-10.439,3.185-10.439c-1.618,3.994-3.382,6.906-4.923,8.979c-1.221-3.617-1.027-10.223,0.656-12.771
	c0.068-0.102,0.139-0.178,0.204-0.262c-0.062-0.017-0.134-0.05-0.196-0.062c-0.797-0.153-1.402,0.064-1.86,0.661
	c-8.013,10.52-22.601,15.299-33.427,17.457c-9.956,1.983-18.652,2.174-21.027,2.188c-0.501,0.545-1.012,1.083-1.531,1.618
	c36.658-0.129,51.57-14.462,51.721-14.61c0.371-0.37,0.972-0.366,1.34,0.006c0.367,0.37,0.367,0.97-0.004,1.338
	c-0.641,0.637-15.693,15.167-53.539,15.167c-0.461,0-0.938-0.012-1.405-0.018c-2.946,2.862-6.033,5.543-8.788,7.877
	c0.017,0,0.031,0,0.046,0l-1.468,1.203l-0.852,0.698l-0.184,0.15c0,0,0.023,0,0.031,0c-16.357,13.793-93.834,78.66-187.115,120.379
	c-94.313,42.18-160.031,60.506-167.772,30.806c-7.016-26.917,28.436-30.331,119.905-64.454
	c35.828-13.368,87.386-37.062,167.29-85.228c-12.054-0.952-34.218-1.172-51.894-1.176c11.508-0.608,28.893-1.241,48.359-0.966
	c2.37,0.141,4.493,0.3,6.281,0.482c10.293-6.226,21.033-12.838,32.283-19.899c-38.598-4.393-85.605-7.642-102.671-5.385
	c-28.034,3.696-204.505,22.641-211.204,23.361c-8.57,12.744-10.645,25.405-6.119,37.692c0.055,0.148,0.122,0.279,0.179,0.426
	c1.38,4.989,6.665,13.228,9.319,17.168c-2.108-1.896-28.365-26.723-1.893-60.583l0.247-0.316l0.398-0.042
	c1.479-0.157,148.538-15.885,207.247-23.38c24.589-3.147,98.679,4.591,112.397,6.077c3.964-2.509,7.969-5.052,12.051-7.664
	c26.033-16.661,35.545-10.427,36.02,2.844c0.164,4.607-2.833,9.656-6.96,14.493c8.591-0.265,38.64-2.334,51.23-18.858
	c0.896-1.178,2.222-1.669,3.726-1.374c2.965,0.572,6.015,3.96,7.098,7.879C672.122,338.319,670.957,342.188,667.707,345.096z
	 M313.777,504.551l11.098-36.509l-1.106,0.382l-11.057,36.372l0.152,0.046C313.167,504.746,313.472,504.649,313.777,504.551z
	 M321.362,502.105l11.121-36.682l-1.105,0.381l-11.116,36.658C320.628,502.345,320.994,502.227,321.362,502.105z M329.14,499.513
	l11.112-36.761l-1.104,0.381l-11.111,36.754C328.406,499.763,328.772,499.637,329.14,499.513z M316.071,471.07l-11.009,36.215
	c0.36-0.111,0.723-0.223,1.094-0.338l11.021-36.256L316.071,471.07z M348.047,460.07l-1.106,0.381l-11.153,36.748
	c0.373-0.133,0.744-0.264,1.111-0.398L348.047,460.07z M297.597,509.572c0.346-0.106,0.709-0.215,1.091-0.332l10.928-35.947
	l-1.106,0.381L297.597,509.572z M256.176,508.843c0,2.355,1.909,4.266,4.265,4.266c2.355,0,4.265-1.91,4.265-4.266
	c0-2.354-1.91-4.267-4.265-4.267C258.085,504.576,256.176,506.488,256.176,508.843z M553.145,385.527
	c-0.314-0.422-0.909-0.506-1.328-0.194C429.25,476.588,338.53,503.777,304.378,514.016c-2.027,0.606-3.866,1.156-5.51,1.66
	c-22.385,6.861-39.793,7.784-49.022,2.614c-3.211-1.8-5.237-4.26-6.021-7.315c-0.13-0.505-0.646-0.811-1.155-0.681
	c-0.507,0.132-0.812,0.647-0.682,1.155c0.907,3.522,3.304,6.461,6.933,8.493c4.194,2.353,9.937,3.521,16.961,3.521
	c9.189,0,20.571-2.001,33.542-5.974c1.641-0.504,3.476-1.053,5.499-1.66c34.24-10.263,125.192-37.523,248.027-128.975
	C553.37,386.542,553.457,385.947,553.145,385.527z M562.477,340.256c0.915-0.575,1.837-1.158,2.758-1.74
	c-18.298-1.941-86.359-8.792-109.569-5.825c-57.217,7.303-198.29,22.421-206.887,23.341c-0.452,0.584-0.871,1.168-1.294,1.753
	c19.102-2.054,182.637-19.637,209.516-23.182C474.555,332.292,523.338,335.714,562.477,340.256z M582.715,351.261
	c0-3.795-3.077-6.872-6.873-6.872c-3.794,0-6.871,3.077-6.871,6.872s3.077,6.871,6.871,6.871
	C579.638,358.132,582.715,355.056,582.715,351.261z M611.906,331.052c0.029-4.266-2.379-6.539-2.483-6.634
	c-0.381-0.354-0.983-0.333-1.337,0.055c-0.356,0.383-0.332,0.982,0.053,1.338c0.018,0.019,1.896,1.792,1.871,5.227
	c-0.029,4.386-3.186,9.523-9.129,14.858c-0.389,0.35-0.422,0.949-0.071,1.338c0.187,0.209,0.446,0.315,0.706,0.315
	c0.225,0,0.451-0.08,0.632-0.243C608.59,341.522,611.873,336.054,611.906,331.052z M260.298,511.72c0.133,0,0.27-0.008,0.407-0.024
	c1.411-0.156,2.508-1.105,2.794-2.414c0.112-0.512-0.211-1.017-0.723-1.127c-0.517-0.107-1.018,0.211-1.128,0.725
	c-0.168,0.766-0.926,0.907-1.154,0.934c-0.414,0.033-0.926-0.068-1.091-0.424c-0.222-0.474-0.788-0.682-1.26-0.457
	c-0.474,0.223-0.679,0.787-0.457,1.26C258.133,511.146,259.132,511.72,260.298,511.72z M579.574,350.438
	c0.504,3.257-2.098,4.041-2.904,4.204c-1.747,0.348-3.859-0.269-4.261-1.877c-0.128-0.509-0.638-0.818-1.15-0.69
	c-0.508,0.128-0.816,0.643-0.69,1.149c0.568,2.28,2.854,3.408,5.136,3.408c0.452,0,0.903-0.045,1.341-0.132
	c2.599-0.525,4.969-2.691,4.402-6.352c-0.08-0.516-0.568-0.868-1.082-0.792C579.847,349.437,579.493,349.922,579.574,350.438z
	 M242.397,394.111c42.723-7.415,73.05-32.96,80.125-39.393l-75.509,8.31C239.271,374.79,239.74,385.779,242.397,394.111z
	 M379.082,348.494l-22.442,2.47c-29.463,7.331-54.52,44.513-112.179,48.351c2.996,6.312,6.66,10.16,6.66,10.16
	C316.208,402.207,330.741,372.191,379.082,348.494z M304.517,405.999c0,0,58.999-5.813,90.041-8.87
	c13.582-2.447,38.16-10.604,45.74-37.812c0,0-0.939,27.016-28.781,36.096c37.24-4.674,31.389-52.919,31.389-52.919
	C377.818,349.759,348.487,399.683,304.517,405.999z M472.447,339.491c-12.639-0.474-26.382,2.529-26.382,2.529l0.157,11.374
	C447.804,341.23,472.447,339.491,472.447,339.491z M312.433,243.359c3.45-5.15,7.606-9.805,12.271-13.944
	c1.808-1.604,3.7-3.113,5.568-4.647c5.464-4.481,11.677-7.617,18.397-9.607c7.306-2.164,16.149-1.123,21.359,4.832
	c7.895,9.021,2.6,22.771-1.691,32.15c-7.829,17.108-17.023,32.666-19.049,51.74c-0.406,3.814,1.193,11.562,6.116,11.852
	c6.093,0.354,10.523-12.711,12.271-16.949c9.468-22.946,16.573-45.342,20.114-69.928c0.98-6.799,3.824-12.694,8.647-17.62
	c5.572-5.692,10.91-8.286,15.523,0.116c0.846,1.539,1.096,3.123,0.855,4.82c-1.846,13.047,7.294,25.293,20.949,16.6
	c4.824-3.069,8.765-6.857,12.13-11.426c16.2-21.996,25.351-48.796,35.252-74.014c4.938-12.579,11.166-50.836,31.418-47.553
	c1.021,0.166,2.079,0.444,2.99,0.92c2.414,1.263,4.51,3.078,5.924,5.422c4.422,7.329-1.135,17.493-4.356,24.257
	c-17.732,37.24-40.282,73.045-57.479,110.781c-4.75,10.427-8.64,21.316-10.597,32.633c-1.377,7.963-3.512,21.716,2.929,28.188
	c10.211,10.258,23.854-9.47,29.441-15.812c0.669-0.761,1.118-1.715,1.805-2.795c-1.17-0.664-2.025-1.246-2.955-1.659
	c-4.985-2.22-8.675-5.795-11.887-10.202c-7.174-9.84-6.367-25.459-0.748-35.874c1.499-2.78,3.206-5.502,5.188-7.954
	c2.748-3.403,5.664-6.667,9.111-9.463c3.397-2.755,7.115-4.455,11.394-5.163c12.673-2.098,19.976,6.293,21.195,18.163
	c1.39,13.541-3.366,24.995-8.826,37.062c-1.063,2.348-2.64,5.255-3.021,7.798c4.531,0.51,9.784-0.894,14.062-2.082
	c0.304-2.477,0.223-5.036,0.791-7.483c0.732-3.155,1.385-6.328,2.139-9.479c1.378-5.766,3.671-11.214,6.473-16.402
	c6.406-11.848,19.238-24.773,32.754-27.903c10.959-2.537,18.769,3.702,21.402,13.974c3.083,12.014-3.834,23.787-12.385,31.991
	c-4.279,4.103-8.616,8.032-13.679,11.142c-2.959,1.814-5.706,4.004-8.769,5.607c-3.863,2.023-7.919,3.695-12.045,5.157
	c-0.561,0.199-1.11,0.427-1.904,0.733c0.174,0.911,5.232,20.879,28.456,9.023c18.022-9.199,34.242-27.673,41.812-46.322
	c0.684-1.683,1.385-3.359,2.083-5.052c-0.829-2.423-1.442-4.938-2.532-7.223c-3.392-7.104,0.516-15.346,7.945-17.385
	c10.998-3.021,12.908,8.313,14.228,16.664c0.866,5.486,7.283,9.061,12.307,7.017c8.479-3.451,9.133-12.833,14.271-18.996
	c7.539-9.042,16.909-1.229,13.823,8.784c-1.317,4.277-8.044,20.807-22.577,25.546c-9.568,3.121-17.598,0.533-25.135-4.343
	c-0.497-0.322-1.01-0.621-1.794-1.101c-0.767,1.979-1.472,3.78-2.157,5.587c-4.964,13.055-10.263,25.996-16.246,38.62
	c-3.241,6.835-8.913,22.279-17.88,23.249c-5.206,0.563-8.22-5.178-6.261-9.641c0.72-1.639,1.56-3.235,2.442-4.818
	c1.991-3.582,4.186-7.099,5.625-10.893c-7.394,8.838-25.614,20.249-43.581,16.879c-4.638-0.871-8.629-3.906-11.888-7.334
	c-1.719-1.81-3.178-3.859-4.361-6.058c-0.338-0.628-2.999-7.397-2.874-7.407c-3.746,0.284-8.275,2.332-22.036,1.257
	c-0.454,0.737-1.04,1.596-1.536,2.503c-8.665,15.854-27.273,36.802-47.675,29.657c-14.607-5.115-16.457-21.19-14.99-34.631
	c1.096-10.036,3.832-19.557,7.207-28.971c0.234-0.659,0.383-1.349,0.711-2.521c-0.439,1.572-10.332,3.213-12.091,3.22
	c-4.291,0.013-9.059-1.396-12.572-3.906c-1.331-0.951-8.126-7.317-7.546-8.897c-0.521,1.417-0.95,2.187-1.076,3.002
	c-1.799,11.673-6.38,22.59-10.621,33.53c-8.504,21.932-29.142,69.646-59.322,43.183c-0.429-0.376-0.936-0.663-1.44-1.015
	c-2.589,2.331-5.015,4.572-7.507,6.736c-1.822,1.585-3.683,3.137-5.619,4.573c-8.275,6.145-19.403,8.447-27.373,0.666
	c-8.283-8.086-8.105-20.872-6.781-31.527c1.861-14.975,8.008-28.495,14.774-41.723C304.884,255.088,308.564,249.134,312.433,243.359
	z M534.574,267.668c0.865-1.145,2.049-1.232,3.142-1.94c8.887-5.76,21.237-12.917,24.014-23.982
	c1.801-7.173-1.558-10.229-8.068-6.951c-7.382,3.717-12.173,13.125-15.279,20.359c-1.157,2.695-1.764,5.761-2.575,8.589
	c-0.008,0.028-0.017,0.059-0.023,0.088C535.435,265.034,535.085,266.554,534.574,267.668z M489.114,274.253
	c0.761-1.131,1.617-2.192,2.241-3.376c3.114-5.896,5.43-12.128,7.354-18.487c2.503-8.271,1.036-27.296-12.535-21.271
	c-9.696,4.305-12.509,21.246-10.2,30.402C477.473,267.462,482.945,272.957,489.114,274.253z M311.8,271.227
	c-5.501,10.396-10.489,20.986-12.007,32.768c-1.175,9.124,2.012,22.967,14.145,18.045c5.931-2.407,14.015-9.407,15.004-16.003
	c1.168-7.778,1.8-17.257,9.658-38.679c1.431-3.904,9.838-18.374,7.636-23.746c-0.788-1.922-2.918-2.674-7.177-1.351
	C326.144,246.275,317.772,259.939,311.8,271.227z M244.95,340.278c-5.618,5.069-11.42,9.938-17.234,14.784
	c-8.059,6.719-16.457,12.996-24.438,19.822c-5.238,4.479-8.558,12.079-14.967,15.066c-1.435,0.668-2.83,0.79-4.394,0.305
	c-3.559-1.104-6.099-4.318-5.9-8.068c0.64-12.124,4.335-24.15,6.785-35.999c3.982-19.271,7.692-38.597,11.629-57.876
	c1.181-5.781,2.217-11.593,3.361-17.383c3.533-17.865,5.271-36.043,9.183-53.84c3.264-14.848,7.665-35.078,22.096-43.241
	c10.179-5.757,18.959,3.095,20.337,12.633c2.049,14.192-4.356,28.832-7.833,42.364c-0.639,2.486-1.457,4.926-2.131,7.404
	c-1.349,4.953-2.664,9.914-3.967,14.879c-0.145,0.553-0.114,1.154-0.19,2.04c2.35-0.702,3.88-2.202,5.599-3.32
	c34.616-22.521,50.729-37.212,54.074-55.945c1.987-11.125,0.059-22.254-8.862-30.143c-13.302-11.758-32.457-6.936-47.183-1.617
	c-19.008,6.866-37.372,15.623-55.724,24.046c-9.615,4.413-19.138,8.814-28.376,13.979c-10.888,6.086-22.014,12.906-34.728,14.006
	c-8.156,0.705-16.711-4.618-17.507-13.114c-1.45-15.483,12.921-24.4,25.12-29.569c17.321-7.342,35.737-12.404,53.502-18.561
	c34.498-11.955,80.468-30.032,115.465-9.63c14.424,8.409,20.731,23.642,19.849,39.728c-1.907,34.768-35.516,52.633-60.739,70.183
	c-2.586,1.8-7.321,4.119-10.464,4.459c1.62,0.197,3.357-0.869,5.036-0.955c0.233-0.012,0.467-0.027,0.703-0.043
	c15.623-1.11,34.141,6.734,33.439,25.462C285.533,307.74,262.229,324.69,244.95,340.278z M246.679,317.652
	c2.291-2.41,4.28-5.104,6.479-7.605c4.615-5.246,9.016-11.159,11.526-17.74c2.797-7.331,4.376-18.225-6.612-21.615
	c-3.457-1.066-15.876-1.185-25.83,4.502c-1.874,1.071-5.409,2.415-5.924,4.502c-1.157,4.687-8.284,35.697-10.849,44.384
	c-1.795,6.082-3.447,12.204-5.23,18.287c-0.635,2.168-1.494,4.27-2.196,6.419c-0.456,1.396-0.81,2.825-1.209,4.239
	c0.274,0.118,0.548,0.236,0.822,0.354c4.14-3.479,8.319-6.91,12.405-10.452c4.57-3.96,9.163-7.903,13.547-12.065
	C238.098,326.601,242.411,322.143,246.679,317.652z"/>
</svg>
